<svg width="163" height="35" fill="none" xmlns="http://www.w3.org/2000/svg"><path fill-rule="evenodd" clip-rule="evenodd" d="M-.151.702v33.6h13.532a15.721 15.721 0 0011.72-4.824 16.459 16.459 0 004.712-11.976 16.4573 16.4573 0 00-4.712-11.976A15.7237 15.7237 0 0013.381.702H-.151zM7.582 26.91V8.091h5.8a8.6457 8.6457 0 016.5 2.568 9.4082 9.4082 0 012.489 6.84 9.4058 9.4058 0 01-2.489 6.84 8.6424 8.6424 0 01-6.5 2.568h-5.8v.003zm34.8-5.952h12.082v-7.3H42.378V8.091h13.291V.702H34.645v33.6H55.91V26.91H42.378v-5.952h.004zm36.343 13.344L89.744.702h-8.458l-7.491 24.72L66.304.702h-8.457l11.019 33.6h9.859zm14.4 0h7.733V.702h-7.733v33.6zm38.615-1.416a15.5083 15.5083 0 006.041-5.688l-6.67-3.84a7.4812 7.4812 0 01-3.165 3.024 9.8728 9.8728 0 01-4.664 1.1 9.594 9.594 0 01-3.874-.6185 9.5924 9.5924 0 01-3.303-2.1175 9.9113 9.9113 0 01-2.077-3.3518 9.9267 9.9267 0 01-.605-3.8962 9.9275 9.9275 0 01.605-3.8963 9.9108 9.9108 0 012.077-3.3517 9.5928 9.5928 0 013.303-2.1175 9.5945 9.5945 0 013.874-.6185 9.8967 9.8967 0 014.639 1.08 7.5889 7.5889 0 013.19 3.048l6.67-3.84a15.874 15.874 0 00-6.09-5.688 17.4192 17.4192 0 00-8.409-2.088c-9.779-.272-17.797 7.691-17.591 17.472-.208 9.781 7.809 17.747 17.588 17.476 2.95.0272 5.859-.691 8.458-2.088h.003zm17.881-11.928h12.082v-7.3h-12.085V8.091h13.29V.702h-21.023v33.6h21.265V26.91h-13.532v-5.952h.003z" fill="#000"/></svg>