<svg width="163" height="35" fill="none" xmlns="http://www.w3.org/2000/svg"><path fill-rule="evenodd" clip-rule="evenodd" d="M-.151.702v33.6001h13.532a15.7211 15.7211 0 0011.72-4.824 16.4583 16.4583 0 004.712-11.976 16.457 16.457 0 00-4.712-11.976A15.7237 15.7237 0 0013.381.702H-.151zm7.733 26.2081V8.0911h5.8a8.6458 8.6458 0 016.5 2.568 9.4082 9.4082 0 012.489 6.84 9.4058 9.4058 0 01-2.489 6.84 8.6422 8.6422 0 01-6.5 2.568h-5.8v.003zm34.8-5.952h12.082v-7.3H42.378v-5.567h13.291V.702H34.645v33.6H55.91v-7.392H42.378v-5.952h.004zm36.343 13.344l11.019-33.6h-8.458l-7.491 24.72-7.491-24.72h-8.457l11.019 33.6h9.859zm14.4 0h7.733v-33.6h-7.733v33.6zm38.615-1.416a15.5098 15.5098 0 006.041-5.688l-6.67-3.84a7.4824 7.4824 0 01-3.165 3.024 9.8728 9.8728 0 01-4.664 1.1 9.5959 9.5959 0 01-7.177-2.736 9.9113 9.9113 0 01-2.077-3.3518 9.9273 9.9273 0 01-.605-3.8962 9.9275 9.9275 0 01.605-3.8963 9.9099 9.9099 0 012.077-3.3517 9.5946 9.5946 0 017.177-2.736 9.8967 9.8967 0 014.639 1.08 7.589 7.589 0 013.19 3.048l6.67-3.84a15.874 15.874 0 00-6.09-5.688 17.4192 17.4192 0 00-8.409-2.088c-9.779-.272-17.797 7.691-17.591 17.472-.208 9.781 7.809 17.747 17.588 17.476 2.95.0272 5.859-.691 8.458-2.088h.003zm17.881-11.928h12.082v-7.3h-12.085v-5.567h13.29V.702h-21.023v33.6h21.265v-7.392h-13.532v-5.952h.003z" fill="#F0C52E"/></svg>