<svg width="32" height="32" fill="none" xmlns="http://www.w3.org/2000/svg"><path d="M21 16a5 5 0 11-9.92-.83H9.33v6.66c0 .46.38.84.84.84h11.66a.84.84 0 00.84-.84v-6.66h-1.75c.05.27.08.54.08.83zm-5 3.33a3.33 3.33 0 100-6.66 3.33 3.33 0 000 6.66zm4-6.83h2a.5.5 0 00.5-.5v-2a.5.5 0 00-.5-.5h-2a.5.5 0 00-.5.5v2c0 .28.23.5.5.5zM16 0a16 16 0 100 32 16 16 0 000-32zm8.33 22.48c0 1.02-.83 1.85-1.85 1.85H9.52a1.86 1.86 0 01-1.85-1.85V9.52c0-1.02.83-1.85 1.85-1.85h12.96c1.02 0 1.85.83 1.85 1.85v12.96z" fill="#fff" fill-opacity=".3"/></svg>